<?xml version="1.0" standalone="no"?>
<!DOCTYPE svg PUBLIC "-//W3C//DTD SVG 20010904//EN"
 "http://www.w3.org/TR/2001/REC-SVG-20010904/DTD/svg10.dtd">
<svg version="1.0" xmlns="http://www.w3.org/2000/svg"
 width="192.000000pt" height="192.000000pt" viewBox="0 0 192.000000 192.000000"
 preserveAspectRatio="xMidYMid meet">

<g transform="translate(0.000000,192.000000) scale(0.100000,-0.100000)"
fill="#000000" stroke="none">
<path d="M810 1654 c-85 -53 -159 -101 -165 -106 -5 -6 65 29 157 76 l167 87
63 -34 c115 -63 303 -160 297 -154 -6 7 -358 227 -362 227 -2 0 -72 -43 -157
-96z"/>
<path d="M903 1488 c-28 -14 -28 -20 -4 -42 31 -28 90 -31 130 -6 31 20 32 23
18 37 -20 20 -113 27 -144 11z"/>
<path d="M744 1465 c3 -9 6 -20 6 -25 0 -5 11 -22 25 -38 l25 -29 -39 -7 c-27
-4 -48 -16 -65 -37 -25 -29 -26 -33 -11 -50 25 -26 82 -51 113 -47 25 3 27 0
44 -72 15 -61 16 -83 7 -117 -15 -55 -5 -89 29 -107 15 -8 36 -23 46 -35 26
-28 61 -27 92 4 14 14 29 25 33 25 33 0 54 87 32 129 -7 12 -3 43 10 97 20 78
21 80 48 76 32 -4 77 16 104 46 31 34 -5 77 -76 91 l-29 6 21 26 c11 14 23 38
27 53 l7 28 -32 -17 c-18 -9 -45 -15 -60 -13 -17 1 -36 -6 -51 -20 -44 -41
-113 -41 -165 0 -18 14 -39 21 -56 20 -15 -2 -42 4 -60 13 -30 16 -32 16 -25
0z m51 -156 c12 -18 0 -19 -46 -5 l-44 14 42 1 c23 1 45 -4 48 -10z m295 -20
c0 -20 -24 -26 -35 -9 -8 13 14 42 26 34 5 -3 9 -14 9 -25z m91 15 c-46 -14
-58 -13 -46 5 3 6 25 11 48 10 l42 -1 -44 -14z m-303 -11 c-2 -10 -10 -18 -18
-18 -8 0 -16 8 -18 18 -2 12 3 17 18 17 15 0 20 -5 18 -17z m148 -188 c25 -16
54 -74 54 -107 0 -40 -18 -48 -110 -48 -54 0 -91 5 -98 12 -22 22 -14 84 15
118 43 51 86 59 139 25z"/>
<path d="M900 1035 c0 -14 5 -25 10 -25 6 0 10 11 10 25 0 14 -4 25 -10 25 -5
0 -10 -11 -10 -25z"/>
<path d="M1014 1046 c-4 -10 -2 -22 4 -28 8 -8 13 -7 18 6 4 10 2 22 -4 28 -8
8 -13 7 -18 -6z"/>
<path d="M354 753 c4 -11 12 -40 19 -64 7 -24 19 -44 26 -44 13 0 41 72 41
108 0 29 -18 19 -25 -15 -11 -52 -18 -55 -29 -13 -6 21 -17 40 -25 43 -9 3
-11 -1 -7 -15z"/>
<path d="M740 755 c0 -8 5 -15 10 -15 6 0 10 7 10 15 0 8 -4 15 -10 15 -5 0
-10 -7 -10 -15z"/>
<path d="M1112 708 l3 -63 30 2 c86 6 79 123 -7 123 l-29 0 3 -62z m63 -3 c0
-23 -5 -31 -22 -33 -20 -3 -23 1 -23 33 0 32 3 36 23 33 17 -2 22 -10 22 -33z"/>
<path d="M549 743 c-1 -10 -1 -34 0 -53 3 -45 21 -65 21 -24 0 17 6 36 13 43
10 11 10 14 0 18 -7 3 -13 11 -13 19 0 20 -20 17 -21 -3z"/>
<path d="M1398 743 c-8 -31 3 -93 17 -93 7 0 15 16 17 38 6 46 0 72 -17 72 -7
0 -15 -8 -17 -17z"/>
<path d="M460 709 c-9 -16 -8 -26 5 -45 18 -28 37 -31 56 -7 13 15 12 16 -8
11 -13 -4 -26 -2 -29 3 -3 5 6 9 20 9 27 0 30 7 20 34 -9 23 -51 20 -64 -5z
m47 -5 c-3 -3 -12 -4 -19 -1 -8 3 -5 6 6 6 11 1 17 -2 13 -5z"/>
<path d="M600 709 c-9 -16 -8 -26 5 -45 18 -28 37 -31 56 -7 13 15 12 16 -8
11 -13 -4 -26 -2 -29 3 -3 5 6 9 20 9 27 0 30 7 20 34 -9 23 -51 20 -64 -5z
m47 -5 c-3 -3 -12 -4 -19 -1 -8 3 -5 6 6 6 11 1 17 -2 13 -5z"/>
<path d="M690 684 c0 -27 4 -43 10 -39 6 3 10 17 10 30 0 13 5 27 10 30 17 10
11 25 -10 25 -17 0 -20 -7 -20 -46z"/>
<path d="M740 685 c0 -25 5 -45 10 -45 6 0 10 20 10 45 0 25 -4 45 -10 45 -5
0 -10 -20 -10 -45z"/>
<path d="M780 685 c0 -25 5 -45 10 -45 6 0 10 16 10 35 0 19 5 35 10 35 6 0
10 -13 10 -29 0 -17 4 -32 9 -35 13 -9 21 20 14 54 -4 25 -10 30 -34 30 -28 0
-29 -2 -29 -45z"/>
<path d="M867 724 c-14 -14 -7 -25 13 -19 11 4 20 2 20 -4 0 -6 -3 -10 -7 -10
-22 4 -33 -3 -33 -20 0 -25 11 -32 39 -24 18 5 22 11 19 42 -2 27 -8 37 -23
39 -12 2 -24 0 -28 -4z m33 -54 c0 -5 -4 -10 -10 -10 -5 0 -10 5 -10 10 0 6 5
10 10 10 6 0 10 -4 10 -10z"/>
<path d="M940 689 c0 -21 5 -39 10 -39 6 0 10 11 10 25 0 14 5 25 10 25 19 0
10 26 -10 27 -17 2 -20 -4 -20 -38z"/>
<path d="M994 708 c4 -13 10 -40 13 -60 7 -50 18 -48 32 6 6 24 13 51 17 60 3
9 1 16 -5 16 -7 0 -15 -10 -20 -22 l-8 -23 -7 23 c-10 29 -30 29 -22 0z"/>
<path d="M1226 714 c-11 -30 -6 -53 15 -65 18 -9 25 -7 42 10 18 17 19 24 9
46 -13 29 -56 35 -66 9z m48 -19 c3 -9 -1 -18 -10 -22 -19 -7 -28 2 -21 22 8
19 23 19 31 0z"/>
<path d="M1316 715 c-17 -45 6 -82 44 -70 31 10 26 37 -6 29 -22 -6 -25 -4
-22 12 3 13 11 18 27 16 14 -1 21 2 19 10 -7 20 -54 22 -62 3z"/>
<path d="M1457 723 c-11 -11 -8 -58 5 -71 18 -18 36 -14 53 12 13 19 14 29 5
45 -10 20 -49 29 -63 14z m43 -33 c0 -11 -7 -20 -15 -20 -15 0 -21 21 -8 33
12 13 23 7 23 -13z"/>
<path d="M1540 691 c0 -22 5 -43 10 -46 6 -4 10 7 10 24 0 17 5 31 10 31 6 0
10 7 10 15 0 8 -9 15 -20 15 -17 0 -20 -7 -20 -39z"/>
<path d="M611 526 c0 -21 1 -21 9 -1 7 18 8 19 15 3 4 -10 11 -15 16 -12 5 3
6 11 2 17 -3 7 3 4 14 -6 21 -18 48 -15 56 7 4 9 -11 12 -54 12 -53 0 -59 -2
-58 -20z m89 4 c0 -5 -4 -10 -10 -10 -5 0 -10 5 -10 10 0 6 5 10 10 10 6 0 10
-4 10 -10z"/>
<path d="M740 530 c0 -11 4 -20 9 -20 5 0 7 9 4 20 -3 11 -7 20 -9 20 -2 0 -4
-9 -4 -20z"/>
<path d="M760 543 c0 -5 5 -15 10 -23 7 -12 9 -10 7 8 -1 19 -17 33 -17 15z"/>
<path d="M793 530 c1 -11 5 -20 9 -20 3 0 6 9 5 20 -1 11 -5 20 -9 20 -3 0 -6
-9 -5 -20z"/>
<path d="M835 540 c-8 -13 3 -30 18 -30 7 0 6 4 -3 10 -13 9 -13 11 0 20 9 6
10 10 3 10 -6 0 -15 -4 -18 -10z"/>
<path d="M870 536 c0 -9 5 -16 10 -16 6 0 10 4 10 9 0 6 -4 13 -10 16 -5 3
-10 -1 -10 -9z"/>
<path d="M906 535 c-8 -22 -8 -22 9 -22 17 0 18 6 6 25 -7 11 -10 10 -15 -3z"/>
<path d="M972 533 c2 -9 10 -18 18 -20 13 -4 13 -3 0 6 -13 10 -13 12 0 21 13
8 12 10 -3 10 -12 0 -17 -6 -15 -17z"/>
<path d="M1018 543 c6 -2 12 -9 12 -14 0 -6 -5 -7 -12 -3 -7 4 -8 3 -4 -5 9
-14 26 -5 26 15 0 8 -8 14 -17 13 -11 0 -13 -3 -5 -6z"/>
<path d="M1050 541 c0 -5 5 -13 10 -16 6 -3 10 -2 10 4 0 5 -4 13 -10 16 -5 3
-10 2 -10 -4z"/>
<path d="M1083 530 c1 -11 5 -20 9 -20 3 0 6 9 5 20 -1 11 -5 20 -9 20 -3 0
-6 -9 -5 -20z"/>
<path d="M1117 530 c-3 -11 -1 -20 4 -20 5 0 9 9 9 20 0 11 -2 20 -4 20 -2 0
-6 -9 -9 -20z"/>
<path d="M1190 536 c0 -9 5 -16 10 -16 6 0 10 4 10 9 0 6 -4 13 -10 16 -5 3
-10 -1 -10 -9z"/>
<path d="M1221 533 c0 -13 2 -14 6 -4 5 11 7 11 14 0 7 -11 9 -10 9 4 0 9 -7
17 -15 17 -8 0 -15 -8 -14 -17z"/>
<path d="M1270 540 c13 -9 13 -11 0 -21 -13 -9 -13 -10 0 -6 22 6 25 37 3 37
-15 0 -16 -2 -3 -10z"/>
<path d="M1305 541 c-3 -5 -1 -12 5 -16 5 -3 10 1 10 9 0 18 -6 21 -15 7z"/>
<path d="M1140 370 c-90 -66 -168 -120 -172 -120 -5 0 -83 50 -173 110 -91 61
-165 108 -165 106 0 -2 75 -61 166 -132 145 -111 169 -126 185 -116 10 7 83
64 161 128 229 186 229 191 -2 24z"/>
</g>
</svg>
